<svg width="197" height="46" viewBox="0 0 197 46" fill="none" xmlns="http://www.w3.org/2000/svg">
<g clip-path="url(#clip0_613_1307)">
<path d="M191.815 8.81377L196.514 13.6468C196.678 13.7803 196.8 13.9605 196.863 14.1647C196.958 15.3542 196.077 15.4193 195.176 15.4858C194.787 15.5145 194.394 15.5436 194.075 15.6642C192.495 16.101 191.086 17.0238 190.037 18.3072C188.988 19.5906 188.352 21.1725 188.214 22.8382C188.113 23.0306 187.959 23.1889 187.771 23.2942C187.585 23.3995 187.372 23.4471 187.158 23.4316C186.91 23.4092 186.678 23.2984 186.503 23.1187L184.96 21.5324C184.972 21.6409 184.972 21.7485 184.972 21.8349V22.8813C184.972 22.9474 184.974 23.0112 184.966 23.0748C184.956 23.146 184.932 23.2171 184.877 23.2912V23.3884C184.877 23.4379 184.883 23.484 184.888 23.5308C184.9 23.6266 184.912 23.7253 184.877 23.8631C184.843 23.9915 184.84 24.1414 184.836 24.2751C184.834 24.3546 184.832 24.4284 184.824 24.4887C184.813 24.5723 184.813 24.6615 184.806 24.7506C184.8 24.8341 184.786 24.9175 184.75 24.9957C184.7 25.1052 184.684 25.2097 184.679 25.316C184.676 25.3668 184.676 25.418 184.676 25.4704L184.613 25.8048L182.216 37.4775L182.026 38.3512L181.951 39.6243L180.896 45.1369L180.727 46H95.2634L94.8515 45.5792L94.7775 45.9461H85.6324L80.5424 40.7139L81.0281 38.3512H78.1558L76.3712 36.5065C74.1563 38.1541 71.4754 39.0178 68.7361 38.9663C65.7915 39.0846 62.9208 38.0061 60.7527 35.9672L57.9753 33.1084L57.3734 35.9779C57.2995 36.3878 57.2044 36.7763 57.0988 37.1539L57.0038 37.5099L56.8454 38.0276C56.8324 38.0726 56.8147 38.1161 56.7926 38.1571C56.6354 38.6328 56.4485 39.0976 56.2329 39.5487C56.2385 39.5662 56.2385 39.5852 56.2329 39.6027C56.2052 39.6625 56.1735 39.7201 56.1378 39.7753C55.9784 40.0976 55.8022 40.4109 55.6098 40.7139C55.5742 40.769 55.5424 40.8267 55.5148 40.8865L55.3987 41.0159C55.1405 41.3941 54.8583 41.7544 54.5538 42.0947C54.4703 42.18 54.3867 42.2602 54.3019 42.3389C54.2152 42.4194 54.1272 42.4984 54.0363 42.5801L53.8041 42.8067C53.6576 42.931 53.5078 43.0509 53.3548 43.1665C53.2286 43.2618 53.1003 43.3541 52.9698 43.4432C50.7935 44.7605 48.283 45.3875 45.7572 45.2448C42.2724 45.2448 39.4844 44.2091 37.7209 42.3968L32.7576 37.294C30.7751 38.4401 28.5303 39.0284 26.2526 38.9986C23.3168 39.0914 20.4635 37.9983 18.3113 35.9564L15.5341 33.0976L14.6364 37.5099L14.4569 38.3837H5.11115L0 33.1191L0.264004 31.8461L5.88203 4.28281L6.05095 3.41978H15.4284L15.6713 3.65715V3.41978H78.8528L79.0852 3.65715V3.41978H88.2302L93.3413 8.68432L93.0879 9.9465L92.8133 11.3274H95.4428L95.8547 11.7482C97.0117 11.0555 98.3259 10.6836 99.6669 10.6693C100.653 10.6494 101.632 10.8408 102.542 11.231C103.451 11.6212 104.27 12.2015 104.947 12.9347L104.81 12.7729L107.291 15.3297C108.801 12.4278 112.191 10.6693 116.795 10.6693C120.365 10.6693 122.994 11.5971 124.588 13.28L126.384 15.1248L126.986 12.158L127.165 11.295H136.321L138.94 13.9812L139.309 12.1688L139.49 11.3058H157.505L157.991 11.8021C159.211 11.0665 160.608 10.6929 162.025 10.7233C162.877 10.6893 163.726 10.8487 164.512 11.19C165.297 11.5314 165.998 12.0462 166.565 12.6975C166.536 12.6636 166.508 12.6296 166.48 12.5963C166.429 12.5344 166.378 12.474 166.324 12.4182L167.242 13.3555C168.041 12.5099 169.002 11.8403 170.064 11.3877C171.127 10.9351 172.268 10.7089 173.419 10.7233C174.03 10.6849 174.64 10.738 175.232 10.8794L174.232 9.84944C174.096 9.70057 174.004 9.51534 173.967 9.31524C173.93 9.11514 173.949 8.90826 174.021 8.71869C174.094 8.52906 174.218 8.36444 174.379 8.24382C174.54 8.1232 174.73 8.05148 174.929 8.03706H175.732C175.948 8.01599 176.163 7.9836 176.376 7.93995C177.498 7.69895 178.554 7.20618 179.467 6.49716C180.381 5.78821 181.129 4.88081 181.657 3.84053C181.703 3.76006 181.744 3.6773 181.783 3.59242V3.53849C182.146 2.73947 182.367 1.88118 182.438 1.00328C182.456 0.730483 182.576 0.475072 182.772 0.288864C182.968 0.102589 183.226 -0.000655316 183.494 3.13016e-06H183.578C183.738 0.0155425 183.893 0.0683499 184.031 0.154343C184.168 0.240402 184.284 0.357342 184.371 0.496274C185.13 1.25144 189.354 5.6421 189.354 5.6421C189.706 6.02874 189.681 6.53068 189.654 7.03853C189.637 7.35255 189.62 7.66887 189.692 7.96154C189.884 7.99677 190.079 8.02343 190.273 8.04148C190.46 8.05866 190.646 8.06801 190.833 8.0694C191.052 8.07407 191.264 8.14821 191.44 8.28161C191.616 8.41495 191.747 8.60097 191.815 8.81377Z" fill="black"/>
<path d="M48.3338 12.3627H55.0078L51.2695 30.4757C50.5832 33.9062 49.2736 35.8697 47.2883 37.2614C45.2803 38.4517 42.9745 39.0143 40.6566 38.8795C36.2425 38.8795 32.0078 36.9917 31.5854 32.4067H38.3016C38.5128 33.4856 39.4844 34.1005 40.9628 34.1005C42.9587 34.1005 43.8774 32.8707 44.2893 30.9396L44.6905 28.9438H44.5427C43.9534 29.6056 43.2386 30.138 42.4417 30.5089C41.6447 30.8798 40.7824 31.0814 39.9068 31.1014C36.0207 31.1014 32.937 27.9405 33.0004 23.3124C33.085 17.9185 36.5275 11.7909 42.304 11.7909C43.3986 11.7156 44.4915 11.962 45.4534 12.5012C46.4153 13.0402 47.2059 13.8494 47.7318 14.8331H47.848L48.3338 12.3627ZM42.5996 26.0418C45.1658 26.0418 46.5914 23.0213 46.6336 20.4213C46.6336 18.6845 45.9683 16.9044 44.0042 16.9044C41.3218 16.9044 39.9596 19.9574 39.9174 22.5788C39.9174 24.3481 40.5827 26.0418 42.5468 26.0418M117.525 26.6244C117.525 27.7787 116.552 28.2426 115.274 28.2426C113.162 28.2426 112.455 27.1638 112.445 25.6535H105.802C105.686 31.2848 110.607 32.6764 114.979 32.6764C120.565 32.6764 124.188 30.206 124.262 25.2759C124.262 21.3382 120.977 20.1408 117.746 19.3748C115.264 18.7924 114.177 18.3716 114.187 17.4114C114.198 16.4513 115.307 16.0629 116.394 16.0629C117.756 16.0629 118.685 16.5592 118.781 17.8322H125.233C125.159 13.1286 121.009 11.7478 116.785 11.7478C111.653 11.7478 107.65 14.1319 107.587 18.6412C107.587 22.1905 109.931 23.4959 113.469 24.4237C115.739 25.0386 117.545 25.2327 117.525 26.6244ZM166.871 15.2862H166.755C166.468 14.2239 165.833 13.2939 164.958 12.6502C164.082 12.0067 163.017 11.6882 161.94 11.7478C159.068 11.7478 157.315 13.2042 155.657 15.4049H155.541L156.153 12.3627H149.436L145.413 32.0184H152.436L154.548 21.4138C155.033 19.1052 156.185 17.487 157.928 17.487C159.67 17.487 159.902 18.9109 159.543 20.6479L157.219 32.0184H164.242L166.355 21.4138C166.84 18.9542 167.991 17.487 169.733 17.487C171.476 17.487 171.709 18.8355 171.349 20.6479L169.026 32.0184H176.048L178.562 20.335C179.618 15.4049 178.002 11.7046 173.367 11.7046C172.077 11.6992 170.807 12.0241 169.672 12.6499C168.537 13.2756 167.575 14.182 166.871 15.2862ZM1.28827 32.0184H8.5431L14.1506 4.45508H6.90628L1.28827 32.0184ZM23.1267 11.7801C28.0266 11.7801 32.7048 14.5202 32.6308 20.7233C32.5675 27.509 28.0477 32.5902 21.1414 32.5902C16.3893 32.5902 11.6373 29.8932 11.7217 23.7224C11.8379 17.0986 16.2943 11.7801 23.1267 11.7801ZM21.3421 27.7787C24.4362 27.7787 25.5661 23.1938 25.5661 20.4968C25.5661 18.5658 24.9853 16.6779 22.9471 16.6779C19.8847 16.6779 18.8393 21.5325 18.8393 24.0353C18.8393 26.0418 19.3884 27.7787 21.3843 27.7787M16.5688 4.45508L15.5128 9.96774H76.4344L77.4904 4.45508H16.5688ZM65.568 11.7801C70.4679 11.7801 75.146 14.5202 75.0722 20.7233C75.0088 27.509 70.4785 32.5902 63.5721 32.5902C58.82 32.5902 54.0679 29.8932 54.1631 23.7224C54.3109 17.0986 58.7672 11.7801 65.568 11.7801ZM63.815 27.7787C66.9092 27.7787 68.0391 23.1938 68.0391 20.4968C68.0391 18.5658 67.4477 16.6779 65.4096 16.6779C62.3577 16.6779 61.3017 21.5325 61.3017 24.0353C61.3017 26.0418 61.8508 27.7787 63.8573 27.7787M79.9827 4.45508L78.9266 9.96774H85.9386L86.9946 4.45508H79.9827ZM74.3647 32.0184H81.3871L85.4105 12.3627H78.3458L74.3647 32.0184ZM96.7733 32.6764C95.6556 32.7575 94.5379 32.5189 93.5455 31.9872C92.5532 31.4556 91.7254 30.652 91.1553 29.6666H91.0391L88.9271 39.6131H81.8201L87.5226 12.3627H94.1966L93.6686 14.9841C94.3656 14.0158 95.2684 13.2215 96.3091 12.6609C97.3498 12.1004 98.5014 11.7882 99.6774 11.7478C103.901 11.7478 106.383 15.448 106.309 20.2595C106.214 26.3115 103.141 32.6764 96.731 32.6764H96.7733ZM96.4987 17.3144C93.7848 17.3144 92.1163 20.8636 92.0741 23.593C92.0741 25.4917 92.7288 27.6061 94.9569 27.6061C97.861 27.6061 99.0543 23.6793 99.0859 21.0577C99.0859 19.2778 98.5791 17.3144 96.4987 17.3144ZM137.103 28.9222H137.219L136.607 32.04H143.28L147.304 12.3842H140.292L138.053 23.3664C137.599 25.6427 136.226 26.8402 134.495 26.8402C132.762 26.8402 132.382 25.1788 132.731 23.4419L135.001 12.3842H127.989L125.507 24.5207C124.451 29.8068 126.859 32.6549 130.894 32.6549C132.16 32.6423 133.402 32.2886 134.491 31.6295C135.581 30.9703 136.483 30.029 137.103 28.9006V28.9222ZM174.771 39.7103L175.826 34.1975H92.5492L91.4932 39.7103H174.771Z" fill="white"/>
<path d="M182.321 17.7566C182.252 17.7512 182.184 17.7317 182.123 17.6994C182.06 17.6672 182.004 17.6227 181.959 17.5686C181.914 17.5144 181.881 17.4517 181.859 17.384C181.838 17.3162 181.83 17.2449 181.836 17.174C181.923 16.2133 181.812 15.2443 181.508 14.3307C181.204 13.4172 180.714 12.5794 180.07 11.8726C179.428 11.1658 178.645 10.6057 177.776 10.2291C176.906 9.85246 175.968 9.6678 175.024 9.68718C174.884 9.68718 174.75 9.63036 174.651 9.5292C174.552 9.42804 174.496 9.29084 174.496 9.14778C174.496 9.00472 174.552 8.86753 174.651 8.76638C174.75 8.66521 174.884 8.60838 175.024 8.60838C175.277 8.6251 175.532 8.6251 175.785 8.60838C177.66 8.40424 179.407 7.53854 180.726 6.16023C182.045 4.78192 182.851 2.97722 183.007 1.05679C183.019 0.921337 183.078 0.794991 183.176 0.702987C183.274 0.610985 183.403 0.560114 183.535 0.56055C183.605 0.565995 183.673 0.585416 183.735 0.617686C183.797 0.649956 183.852 0.694442 183.897 0.748585C183.943 0.802729 183.977 0.865457 183.998 0.933165C184.019 1.00087 184.027 1.07221 184.022 1.14309C183.934 2.10296 184.045 3.07097 184.348 3.98382C184.652 4.89665 185.141 5.73377 185.782 6.44045C186.425 7.14711 187.205 7.70741 188.073 8.08472C188.942 8.46202 189.879 8.64781 190.822 8.62996C190.962 8.62996 191.097 8.6868 191.196 8.78795C191.295 8.88911 191.35 9.0263 191.35 9.16936C191.35 9.31242 191.295 9.44963 191.196 9.55078C191.097 9.65194 190.962 9.70876 190.822 9.70876C188.816 9.74261 186.892 10.5321 185.421 11.9259C183.95 13.3195 183.033 15.2192 182.85 17.2604C182.839 17.3958 182.779 17.5222 182.681 17.6142C182.583 17.7062 182.455 17.757 182.321 17.7566Z" fill="white"/>
</g>
<defs>
<clipPath id="clip0_613_1307">
<rect width="197" height="46" fill="white"/>
</clipPath>
</defs>
</svg>
