<svg width="247" height="43" viewBox="0 0 247 43" fill="none" xmlns="http://www.w3.org/2000/svg">
<path d="M40.0694 1L41.0463 6.75071L44.9772 2.44104L42.6899 7.80697L48.3267 6.30662L43.5015 9.58414L49.0546 11.3695L43.2234 11.518L46.9298 16.0221L41.944 12.9945L42.6269 18.7875L40.0694 13.5449L37.512 18.7875L38.1949 12.9945L33.2091 16.0221L36.9154 11.518L31.0842 11.3695L36.6374 9.58414L31.8122 6.30662L37.449 7.80697L35.1617 2.44104L39.0926 6.75071L40.0694 1Z" fill="#FB8E26"/>
<circle cx="40.0123" cy="10.0205" r="5.13826" fill="#FB8E26"/>
<path d="M20.3015 31.557L31.3991 12.3354L42.4967 31.557H20.3015Z" stroke="white" stroke-width="3"/>
<path d="M4.05206 31.5742L18.759 6.10098L33.4659 31.5742H4.05206Z" stroke="white" stroke-width="3"/>
<path d="M18.7165 3.8013L24.6497 14.0778L23.5122 12.8218L21.7424 14.0778L19.4016 12.8218L17.0609 14.0778L15.4052 12.8218L12.7834 14.0778L18.7165 3.8013Z" fill="white"/>
<path d="M31.342 9.90634L36.1377 18.2417L35.2183 17.223L33.7878 18.2417L31.8958 17.223L30.0038 18.2417L28.6655 17.223L26.5463 18.2417L31.342 9.90634Z" fill="white"/>
<line x1="13.0831" y1="36.4169" x2="27.8909" y2="36.4169" stroke="white" stroke-width="2" stroke-linecap="round"/>
<line x1="31.7419" y1="39.4683" x2="45.649" y2="39.4683" stroke="white" stroke-width="1.5" stroke-linecap="round"/>
<path d="M74.312 37.512C73.544 37.512 72.9787 37.32 72.616 36.936C72.2533 36.5307 71.944 35.9333 71.688 35.144C71.432 34.3333 70.9307 32.1787 70.184 28.68C69.6933 29.1067 68.8933 29.3413 67.784 29.384L62.312 29.576C61.0107 32.7547 60.0507 35.5813 59.432 38.056C57.384 37.3307 56.36 36.5093 56.36 35.592C56.36 35.1867 56.9787 33.672 58.216 31.048C59.4533 28.424 60.8507 25.448 62.408 22.12C63.9867 18.7707 65.0533 16.3387 65.608 14.824L66.184 13.256C66.0133 12.9573 65.5973 12.4133 64.936 11.624C65.704 11.368 66.3653 11.24 66.92 11.24C67.496 11.24 67.9653 11.2827 68.328 11.368C68.712 11.4533 69.0427 11.6027 69.32 11.816C69.6187 12.008 69.8747 12.2107 70.088 12.424C70.3227 12.6373 70.536 12.9573 70.728 13.384C70.92 13.7893 71.08 14.1627 71.208 14.504C71.336 14.824 71.4747 15.2827 71.624 15.88C71.7947 16.4773 71.9227 17 72.008 17.448C72.1147 17.8747 72.2427 18.4827 72.392 19.272C72.5627 20.04 72.7333 20.7867 72.904 21.512C73.0747 22.2373 73.3733 23.624 73.8 25.672C74.2267 27.6987 74.5573 29.224 74.792 30.248C75.048 31.2507 75.4 32.3813 75.848 33.64C76.3173 34.8987 76.808 35.8907 77.32 36.616C76.0827 37.2133 75.08 37.512 74.312 37.512ZM67.656 17.512C67.3573 18.1947 66.696 19.656 65.672 21.896C64.6693 24.1147 63.8907 25.8853 63.336 27.208H69.896C68.8933 22.6 68.1467 19.368 67.656 17.512ZM83.513 30.536C83.513 33.0747 84.281 34.344 85.817 34.344C86.6277 34.344 87.417 33.9067 88.185 33.032C88.953 32.1573 89.5717 30.984 90.041 29.512C90.5317 28.04 90.9477 26.472 91.289 24.808C91.6517 23.1227 91.9183 21.3413 92.089 19.464C92.3877 15.8373 92.537 13.0107 92.537 10.984C92.537 8.936 92.4517 7.4 92.281 6.376C93.817 6.71733 94.8943 7.44267 95.513 8.552C96.1317 9.66133 96.441 11.0587 96.441 12.744C96.441 14.4293 96.0783 17.5653 95.353 22.152C94.649 26.7387 94.297 30.088 94.297 32.2C94.297 34.312 94.393 36.104 94.585 37.576C93.0703 37.1707 92.025 36.4453 91.449 35.4C90.8943 34.3333 90.617 33 90.617 31.4C89.9557 33.2347 88.9637 34.6853 87.641 35.752C86.3183 36.8187 84.953 37.352 83.545 37.352C82.137 37.352 80.985 36.8187 80.089 35.752C79.2143 34.664 78.777 33.0747 78.777 30.984C78.777 27.6773 79.6837 24.84 81.497 22.472C83.3103 20.0827 85.4543 18.888 87.929 18.888C88.633 18.888 89.7423 19.0587 91.257 19.4C89.9343 19.7413 88.7503 20.3387 87.705 21.192C86.681 22.024 85.881 22.984 85.305 24.072C84.1103 26.2267 83.513 28.3813 83.513 30.536ZM105.856 37C105.173 37.2987 104.458 37.448 103.712 37.448C102.965 37.448 102.549 37.288 102.464 36.968C102.122 35.6027 101.728 33.5653 101.28 30.856C100.832 28.1253 100.373 25.7467 99.9038 23.72C99.4558 21.672 98.9118 20.1253 98.2718 19.08C99.4451 18.5253 100.384 18.248 101.088 18.248C101.792 18.248 102.325 18.408 102.688 18.728C103.05 19.048 103.349 19.688 103.584 20.648C103.84 21.5867 104.021 22.3653 104.128 22.984C104.426 25.032 104.576 26.1733 104.576 26.408C104.576 26.6427 104.661 27.6027 104.832 29.288C105.002 30.952 105.13 32.0507 105.216 32.584C109.013 25.224 110.912 20.3067 110.912 17.832C112.661 18.728 113.536 19.6987 113.536 20.744C113.536 21.5973 113.088 22.8667 112.192 24.552C111.317 26.216 110.208 28.2427 108.864 30.632C107.541 33 106.538 35.1227 105.856 37ZM123.156 29.128C122.132 29.128 121.129 29.0107 120.148 28.776C120.126 28.9893 120.116 29.32 120.116 29.768C120.116 31.5387 120.446 32.872 121.108 33.768C121.769 34.664 122.558 35.112 123.476 35.112C124.393 35.112 125.268 34.8347 126.1 34.28C126.932 33.7253 127.657 32.9573 128.276 31.976C129.044 32.1467 129.428 32.5413 129.428 33.16C127.55 36.04 125.129 37.48 122.164 37.48C120.372 37.48 118.804 36.7973 117.46 35.432C116.116 34.0453 115.444 32.1253 115.444 29.672C115.444 27.8373 115.796 26.0987 116.5 24.456C117.204 22.792 118.324 21.3947 119.86 20.264C121.396 19.112 123.092 18.536 124.948 18.536C126.825 18.536 128.201 18.9627 129.076 19.816C129.95 20.6693 130.388 21.7893 130.388 23.176C130.388 25.1813 129.684 26.6747 128.276 27.656C126.889 28.6373 125.182 29.128 123.156 29.128ZM124.5 20.52C123.412 20.52 122.494 21.192 121.748 22.536C121.001 23.88 120.51 25.512 120.276 27.432H120.756C122.612 27.432 123.977 26.952 124.852 25.992C125.748 25.032 126.196 23.88 126.196 22.536C126.196 21.9813 126.046 21.512 125.748 21.128C125.47 20.7227 125.054 20.52 124.5 20.52ZM146.086 18.536C147.345 18.536 148.241 18.9307 148.774 19.72C149.329 20.488 149.606 21.544 149.606 22.888C149.606 24.2107 149.393 26.0773 148.966 28.488C148.561 30.8987 148.358 32.6587 148.358 33.768C148.358 34.856 148.497 35.656 148.774 36.168C149.051 36.6587 149.521 37.0853 150.182 37.448C149.905 37.4693 149.51 37.48 148.998 37.48C147.206 37.48 145.926 37.2027 145.158 36.648C144.411 36.0933 144.038 35.1227 144.038 33.736C144.038 32.9467 144.251 31.4107 144.678 29.128C145.105 26.824 145.318 25.1067 145.318 23.976C145.318 22.568 144.891 21.864 144.038 21.864C143.547 21.864 142.993 22.152 142.374 22.728C141.755 23.304 141.158 24.0933 140.582 25.096C140.006 26.0773 139.526 27.3467 139.142 28.904C138.758 30.4613 138.566 32.0187 138.566 33.576C138.566 35.112 138.63 36.2533 138.758 37C138.075 37.0427 137.627 37.064 137.414 37.064C136.198 37.064 135.323 36.8507 134.79 36.424C134.257 35.9973 133.99 35.2933 133.99 34.312C133.99 33.8853 134.214 32.2427 134.662 29.384C135.11 26.5253 135.334 24.2533 135.334 22.568C135.334 20.8613 135.153 19.2933 134.79 17.864C136.347 18.3547 137.435 19.0587 138.054 19.976C138.673 20.872 138.982 21.9067 138.982 23.08C138.982 24.232 138.854 25.576 138.598 27.112C139.302 24.7227 140.411 22.696 141.926 21.032C143.441 19.368 144.827 18.536 146.086 18.536ZM160.613 21.96C160.507 22.728 160.283 24.0613 159.941 25.96C159.216 29.992 158.853 32.9787 158.853 34.92C158.853 36.8613 159.003 38.1627 159.301 38.824C157.659 38.3973 156.528 37.7467 155.909 36.872C155.291 35.976 154.981 34.7173 154.981 33.096C154.981 31.6667 155.205 29.7147 155.653 27.24C156.101 24.744 156.389 23.0587 156.517 22.184C155.408 22.376 154.224 22.7493 152.965 23.304C152.923 22.8347 152.901 22.4827 152.901 22.248C152.901 21.1173 153.243 20.3493 153.925 19.944C154.608 19.5173 155.589 19.2933 156.869 19.272C157.019 17.672 157.093 16.52 157.093 15.816C157.093 15.112 157.083 14.5253 157.061 14.056C157.061 13.5867 157.061 13.2347 157.061 13C158.469 13.1493 159.493 13.576 160.133 14.28C160.773 14.9627 161.093 15.944 161.093 17.224C161.093 17.736 161.04 18.4507 160.933 19.368C162.725 19.3253 164.037 18.9733 164.869 18.312C164.912 18.7387 164.933 19.0587 164.933 19.272C164.933 20.296 164.752 21.0107 164.389 21.416C164.027 21.8 163.419 21.992 162.565 21.992C161.712 21.992 161.061 21.9813 160.613 21.96ZM176.701 18.536C177.341 18.4933 177.789 18.472 178.045 18.472C179.154 18.472 179.997 18.6747 180.573 19.08C181.149 19.4853 181.437 20.232 181.437 21.32C181.437 21.6613 181.234 23.1653 180.829 25.832C180.424 28.4773 180.221 30.7493 180.221 32.648C180.221 34.5467 180.424 36.2213 180.829 37.672C179.229 37.16 178.12 36.4347 177.501 35.496C176.882 34.5573 176.573 33.3947 176.573 32.008C176.573 31.4747 176.69 30.2693 176.925 28.392C176.264 30.824 175.25 32.872 173.885 34.536C172.541 36.1787 171.272 37 170.077 37C167.624 37 166.397 35.2293 166.397 31.688C166.397 30.5147 166.568 28.8827 166.909 26.792C167.272 24.68 167.453 23.08 167.453 21.992C167.453 20.904 167.304 19.8053 167.005 18.696C168.776 18.696 170.056 18.9307 170.845 19.4C171.656 19.848 172.061 20.7547 172.061 22.12C172.061 22.8453 171.837 24.2853 171.389 26.44C170.941 28.5947 170.717 30.216 170.717 31.304C170.717 32.8827 171.144 33.672 171.997 33.672C172.424 33.672 172.914 33.384 173.469 32.808C174.024 32.2107 174.557 31.432 175.069 30.472C175.581 29.4907 176.008 28.2747 176.349 26.824C176.712 25.352 176.893 23.8693 176.893 22.376C176.893 20.8613 176.829 19.5813 176.701 18.536ZM190.475 26.6C191.243 23.8267 192.161 21.7893 193.227 20.488C194.315 19.1653 195.318 18.504 196.235 18.504C197.174 18.504 197.878 18.856 198.347 19.56C198.817 20.2427 199.051 21.1387 199.051 22.248C199.051 23.336 198.721 24.3387 198.059 25.256C197.419 26.1733 196.534 26.632 195.403 26.632C195.105 26.632 194.753 26.5467 194.347 26.376C195.009 25.544 195.339 24.5413 195.339 23.368C195.339 22.6853 195.062 22.344 194.507 22.344C194.102 22.344 193.665 22.632 193.195 23.208C192.726 23.7627 192.278 24.5413 191.851 25.544C191.425 26.5253 191.062 27.7947 190.763 29.352C190.486 30.888 190.347 32.5307 190.347 34.28C190.347 34.4933 190.401 35.4 190.507 37C189.825 37.0427 189.387 37.064 189.195 37.064C187.979 37.064 187.105 36.8507 186.571 36.424C186.038 35.9973 185.771 35.2933 185.771 34.312C185.771 33.8853 185.995 32.2427 186.443 29.384C186.891 26.5253 187.115 24.2533 187.115 22.568C187.115 20.8613 186.934 19.2933 186.571 17.864C188.129 18.3547 189.217 19.0587 189.835 19.976C190.454 20.872 190.763 21.928 190.763 23.144C190.763 24.3387 190.667 25.4907 190.475 26.6ZM206.568 21.096C206.568 21.416 206.301 23.1013 205.768 26.152C205.256 29.1813 204.989 31.688 204.968 33.672C204.968 35.6347 205.096 36.904 205.352 37.48C203.688 37.0533 202.568 36.4133 201.992 35.56C201.416 34.6853 201.128 33.416 201.128 31.752C201.128 30.856 201.298 29.2347 201.64 26.888C201.981 24.5413 202.152 22.7173 202.152 21.416C202.152 20.1147 202.088 19.112 201.96 18.408C202.429 18.3653 202.866 18.344 203.272 18.344C204.509 18.344 205.362 18.5573 205.832 18.984C206.322 19.3893 206.568 20.0933 206.568 21.096ZM207.048 15.528C206.45 15.6133 205.928 15.656 205.48 15.656C203.282 15.656 202.184 14.888 202.184 13.352C202.184 12.7973 202.344 12.04 202.664 11.08C203.261 10.9947 203.784 10.952 204.232 10.952C206.429 10.952 207.528 11.72 207.528 13.256C207.528 13.8107 207.368 14.568 207.048 15.528ZM217.713 20.424C217.116 20.424 216.582 20.6267 216.113 21.032C215.644 21.416 215.409 21.9707 215.409 22.696C215.409 23.4213 215.654 24.104 216.145 24.744C216.657 25.384 217.276 25.9493 218.001 26.44C218.726 26.9093 219.452 27.4 220.177 27.912C220.924 28.4027 221.574 29.0213 222.129 29.768C222.684 30.4933 222.993 31.304 223.057 32.2C223.057 33.736 222.396 35.0267 221.073 36.072C219.75 37.1173 218.108 37.64 216.145 37.64C214.182 37.64 212.636 37.2453 211.505 36.456C210.396 35.6667 209.841 34.76 209.841 33.736C209.841 32.712 210.15 31.8907 210.769 31.272C211.409 30.632 212.198 30.312 213.137 30.312C213.628 30.312 214.086 30.3973 214.513 30.568C213.83 31.2933 213.489 32.0613 213.489 32.872C213.489 33.6827 213.713 34.3333 214.161 34.824C214.609 35.3147 215.217 35.56 215.985 35.56C216.753 35.56 217.393 35.368 217.905 34.984C218.438 34.5787 218.705 34.0667 218.705 33.448C218.705 32.808 218.524 32.2427 218.161 31.752C217.798 31.2613 217.34 30.8347 216.785 30.472C216.252 30.088 215.665 29.6613 215.025 29.192C214.385 28.7227 213.788 28.2533 213.233 27.784C212.7 27.2933 212.252 26.6853 211.889 25.96C211.526 25.2133 211.345 24.4027 211.345 23.528C211.345 22.0133 211.964 20.776 213.201 19.816C214.46 18.8347 216.017 18.344 217.873 18.344C219.75 18.344 221.116 18.7067 221.969 19.432C222.844 20.1573 223.281 21.0107 223.281 21.992C223.281 22.952 222.972 23.7733 222.353 24.456C221.756 25.1387 220.977 25.48 220.017 25.48C219.548 25.48 219.014 25.384 218.417 25.192C218.886 24.7867 219.249 24.328 219.505 23.816C219.761 23.2827 219.889 22.76 219.889 22.248C219.889 21.736 219.676 21.3093 219.249 20.968C218.822 20.6053 218.31 20.424 217.713 20.424ZM233.52 21.96C233.413 22.728 233.189 24.0613 232.848 25.96C232.122 29.992 231.76 32.9787 231.76 34.92C231.76 36.8613 231.909 38.1627 232.208 38.824C230.565 38.3973 229.434 37.7467 228.816 36.872C228.197 35.976 227.888 34.7173 227.888 33.096C227.888 31.6667 228.112 29.7147 228.56 27.24C229.008 24.744 229.296 23.0587 229.424 22.184C228.314 22.376 227.13 22.7493 225.872 23.304C225.829 22.8347 225.808 22.4827 225.808 22.248C225.808 21.1173 226.149 20.3493 226.832 19.944C227.514 19.5173 228.496 19.2933 229.776 19.272C229.925 17.672 230 16.52 230 15.816C230 15.112 229.989 14.5253 229.968 14.056C229.968 13.5867 229.968 13.2347 229.968 13C231.376 13.1493 232.4 13.576 233.04 14.28C233.68 14.9627 234 15.944 234 17.224C234 17.736 233.946 18.4507 233.84 19.368C235.632 19.3253 236.944 18.9733 237.776 18.312C237.818 18.7387 237.84 19.0587 237.84 19.272C237.84 20.296 237.658 21.0107 237.296 21.416C236.933 21.8 236.325 21.992 235.472 21.992C234.618 21.992 233.968 21.9813 233.52 21.96Z" fill="white"/>
</svg>
