<svg width="56" height="56" viewBox="0 0 56 56" fill="none" xmlns="http://www.w3.org/2000/svg">
<circle cx="27.8292" cy="27.6708" r="27.0208" stroke="#FB8E26" stroke-width="1.3"/>
<path d="M33.1319 31.3894H22.5115C20.1547 31.3894 18.2356 33.3085 18.2356 35.6653V39.264C18.2356 40.2591 19.0436 41.0671 20.0387 41.0671H35.5972C36.5923 41.0671 37.4003 40.2591 37.4003 39.264V35.6653C37.404 33.3047 35.4887 31.3894 33.1319 31.3894ZM36.4688 39.2603C36.4688 39.7391 36.0798 40.1282 35.6009 40.1282H20.0425C19.5636 40.1282 19.1746 39.7391 19.1746 39.2603V35.6615C19.1746 33.821 20.6709 32.3209 22.5152 32.3209H33.1357C34.9762 32.3209 36.4763 33.8173 36.4763 35.6615V39.2603H36.4688Z" fill="#FB8E26"/>
<path d="M40.3743 31.4118V23.4886C41.6575 22.471 42.4805 20.9036 42.4805 19.1454V16.018C42.4805 14.776 41.4704 13.7659 40.2284 13.7659H32.6531C32.4212 11.7458 30.7003 10.1709 28.6204 10.1709H27.023C24.9393 10.1709 23.2222 11.7458 22.9903 13.7659H15.4112C14.1692 13.7659 13.1592 14.776 13.1592 16.018V19.1454C13.1592 20.9036 13.9859 22.471 15.2653 23.4886V31.4118C12.9235 31.6475 11.0905 33.6302 11.0905 36.0318V38.9685C11.0905 39.9112 11.8573 40.6743 12.7963 40.6743H15.284C15.4748 43.1845 17.5697 45.1709 20.1285 45.1709H35.5111C38.0699 45.1709 40.1649 43.1845 40.3556 40.6743H42.862C43.8048 40.6743 44.5679 39.9074 44.5679 38.9685V36.0318C44.5716 33.6227 42.7274 31.6363 40.3743 31.4118ZM27.023 11.1061H28.6204C30.1878 11.1061 31.4859 12.2621 31.7141 13.7659H23.9293C24.1537 12.2621 25.4556 11.1061 27.023 11.1061ZM14.0944 19.1454V16.018C14.0944 15.2922 14.6855 14.7012 15.4112 14.7012H40.2322C40.9579 14.7012 41.549 15.2922 41.549 16.018V19.1454C41.549 21.6892 39.4803 23.7542 36.9402 23.7542H36.0162V22.6244C36.0162 21.4498 35.0585 20.4921 33.8839 20.4921C32.7092 20.4921 31.7515 21.4498 31.7515 22.6244V23.7542H23.8956V22.6244C23.8956 21.4498 22.9379 20.4921 21.7633 20.4921C20.5886 20.4921 19.631 21.4498 19.631 22.6244V23.7542H18.707C16.1631 23.7579 14.0944 21.6892 14.0944 19.1454ZM32.683 22.6282C32.683 21.9698 33.2217 21.4311 33.8801 21.4311C34.5385 21.4311 35.0772 21.9698 35.0772 22.6282V25.8266C35.0772 26.485 34.5385 27.0237 33.8801 27.0237C33.2217 27.0237 32.683 26.485 32.683 25.8266V22.6282ZM20.5625 22.6282C20.5625 21.9698 21.1011 21.4311 21.7595 21.4311C22.4179 21.4311 22.9566 21.9698 22.9566 22.6282V25.8266C22.9566 26.485 22.4179 27.0237 21.7595 27.0237C21.1011 27.0237 20.5625 26.485 20.5625 25.8266V22.6282ZM12.0257 38.9685V36.0318C12.0257 34.1464 13.4397 32.5827 15.2653 32.3545V39.7428H12.7963C12.3698 39.7391 12.0257 39.3949 12.0257 38.9685ZM35.5111 44.2357H20.1285C17.9625 44.2357 16.2005 42.4737 16.2005 40.3077V40.2067V24.0871C16.9525 24.4687 17.8017 24.6894 18.7032 24.6894H19.6272V25.8192C19.6272 26.9938 20.5849 27.9515 21.7595 27.9515C22.9342 27.9515 23.8919 26.9938 23.8919 25.8192V24.6894H31.7478V25.8192C31.7478 26.9938 32.7055 27.9515 33.8801 27.9515C35.0548 27.9515 36.0124 26.9938 36.0124 25.8192V24.6894H36.9364C37.838 24.6894 38.6872 24.4687 39.4391 24.0871V40.3077C39.4391 42.4737 37.6771 44.2357 35.5111 44.2357ZM43.6364 38.9685C43.6364 39.3949 43.2923 39.7391 42.8658 39.7391H40.3968V32.3545C42.2224 32.5865 43.6364 34.1464 43.6364 36.0318V38.9685Z" fill="#FB8E26"/>
</svg>
