<svg width="88" height="80" viewBox="0 0 88 80" fill="none" xmlns="http://www.w3.org/2000/svg">
<path d="M86.3264 30.7239L67.0197 2.99327C64.8121 -0.181521 60.4479 -0.952101 57.2897 1.26717L45.8836 9.29149L42.5414 6.22971C40.62 4.47279 37.7991 4.28785 35.6732 5.78791L14.5984 20.6139C12.4725 22.114 11.6753 24.847 12.6565 27.2512L14.3735 31.4637L2.97759 39.4983C-0.180569 41.7175 -0.947113 46.1047 1.26053 49.2795L20.5774 77.0102C21.9368 78.9623 24.1035 80 26.3112 80C27.6909 80 29.0912 79.589 30.3074 78.7363L84.6196 40.5052C86.1526 39.4263 87.1645 37.8235 87.4915 35.9741C87.8084 34.1247 87.3996 32.2548 86.3264 30.7239ZM15.0276 26.2854C14.4962 24.9908 14.9254 23.5216 16.0701 22.7201L37.1348 7.89417C37.6458 7.53456 38.2386 7.34962 38.8314 7.34962C39.5468 7.34962 40.252 7.61676 40.8142 8.13048L43.7372 10.8018L16.5301 29.9636L15.0276 26.2854ZM84.967 35.5221C84.7626 36.6934 84.1187 37.7105 83.1478 38.3989L28.8356 76.6197C26.8324 78.0273 24.0626 77.5341 22.6624 75.5306L3.35575 47.8C1.95553 45.7862 2.44612 43.0018 4.43913 41.5942L58.7513 3.36315C59.528 2.81861 60.407 2.56175 61.286 2.56175C62.6862 2.56175 64.0558 3.21931 64.9245 4.46251L84.2414 32.1932C84.9159 33.1692 85.1715 34.3508 84.967 35.5221Z" fill="#FB8E26"/>
<path d="M33.7313 25.5458C29.8884 28.248 27.3332 32.2961 26.5156 36.9298C25.6979 41.5739 26.7302 46.2487 29.4182 50.1119C32.8319 55.0025 38.2795 57.6328 43.819 57.6328C47.294 57.6328 50.7997 56.5951 53.8556 54.4477C61.7766 48.8687 63.7185 37.8443 58.1687 29.8816C52.6189 21.9189 41.6523 19.9771 33.7313 25.5458ZM52.3941 52.3415C45.6178 57.1088 36.2558 55.4443 31.5134 48.6427C29.2138 45.3446 28.3348 41.3478 29.0298 37.3819C29.7248 33.416 31.912 29.9638 35.1928 27.652C37.8093 25.8129 40.8039 24.9293 43.7679 24.9293C48.5 24.9293 53.1606 27.1691 56.0735 31.3508C60.8158 38.1628 59.1703 47.5741 52.3941 52.3415Z" fill="#FB8E26"/>
<path d="M36.9304 30.1382C31.5237 33.9398 30.2052 41.4606 33.9868 46.8958C36.3171 50.235 40.0272 52.0227 43.8088 52.0227C46.18 52.0227 48.5716 51.3138 50.6566 49.8548C53.2731 48.0157 55.0208 45.2519 55.5829 42.0874C56.1348 38.9229 55.4296 35.7275 53.6001 33.0973C49.8185 27.6621 42.337 26.3367 36.9304 30.1382ZM53.0686 41.6456C52.6292 44.132 51.2596 46.2999 49.195 47.7486C47.1305 49.1973 44.6367 49.7624 42.1633 49.3206C39.6899 48.8788 37.5334 47.502 36.082 45.4266C33.1079 41.1524 34.1401 35.2343 38.3919 32.2445C40.0272 31.0938 41.918 30.5389 43.7781 30.5389C46.7523 30.5389 49.6754 31.9465 51.5049 34.5665C52.946 36.6419 53.5081 39.1489 53.0686 41.6456Z" fill="#FB8E26"/>
</svg>
