<svg width="199" height="37" viewBox="0 0 199 37" fill="none" xmlns="http://www.w3.org/2000/svg">
<g clip-path="url(#clip0_613_1295)">
<path d="M111.691 27.3095H115.948V11.04H111.691V27.3095ZM111.691 8.50293H115.948V4.63379H111.691V8.50293Z" fill="black"/>
<path d="M118.691 32.6372H122.947V25.4697H123.009C123.917 26.8652 125.388 27.7849 127.641 27.7849C131.773 27.7849 134.59 24.4549 134.59 19.1903C134.59 14.116 131.867 10.5957 127.61 10.5957C125.419 10.5957 123.917 11.6423 122.884 13.0694H122.79V11.0397H118.691V32.6372ZM126.734 24.2012C124.199 24.2012 122.853 22.2666 122.853 19.3172C122.853 16.3994 123.917 14.0843 126.578 14.0843C129.207 14.0843 130.27 16.2409 130.27 19.3172C130.27 22.3934 128.894 24.2012 126.734 24.2012Z" fill="black"/>
<path d="M143.08 27.7849C147.087 27.7849 149.841 25.8186 149.841 22.552C149.841 18.7463 146.867 17.9852 144.176 17.4143C141.891 16.9386 139.763 16.8117 139.763 15.4163C139.763 14.2429 140.858 13.6086 142.517 13.6086C144.333 13.6086 145.428 14.2429 145.615 15.9872H149.465C149.152 12.7206 146.804 10.5957 142.58 10.5957C138.918 10.5957 136.038 12.2766 136.038 15.7969C136.038 19.3489 138.855 20.1417 141.735 20.7126C143.925 21.1566 145.959 21.3152 145.959 22.8692C145.959 24.0109 144.896 24.7403 143.018 24.7403C141.108 24.7403 139.794 23.9157 139.513 22.0446H135.569C135.819 25.5014 138.417 27.7849 143.08 27.7849Z" fill="black"/>
<path d="M166.001 27.3095V11.04H161.744V20.4275C161.744 22.584 160.524 24.1063 158.521 24.1063C156.705 24.1063 155.861 23.0598 155.861 21.1569V11.04H151.635V21.8863C151.635 25.4383 153.638 27.7535 157.206 27.7535C159.46 27.7535 160.712 26.8972 161.807 25.4067H161.901V27.3095H166.001Z" fill="black"/>
<path d="M168.754 27.3092H173.01V17.8583C173.01 15.7017 174.169 14.3063 175.89 14.3063C177.455 14.3063 178.362 15.2577 178.362 17.0972V27.3092H182.619V17.8583C182.619 15.7017 183.714 14.3063 185.498 14.3063C187.064 14.3063 187.971 15.2577 187.971 17.0972V27.3092H192.228V16.3677C192.228 12.8157 190.318 10.5957 186.938 10.5957C184.904 10.5957 183.213 11.674 182.118 13.45H182.056C181.273 11.7374 179.646 10.5957 177.611 10.5957C175.389 10.5957 173.825 11.7374 172.948 13.228H172.854V11.0397H168.754V27.3092Z" fill="black"/>
<path d="M0.752319 27.3095H5.00878V4.63379H0.752319V27.3095Z" fill="black"/>
<path d="M15.4165 27.7849C20.3927 27.7849 23.8041 24.0426 23.8041 19.1903C23.8041 14.338 20.3927 10.5957 15.4165 10.5957C10.4401 10.5957 7.02869 14.338 7.02869 19.1903C7.02869 24.0426 10.4401 27.7849 15.4165 27.7849ZM15.4165 24.4866C12.7875 24.4866 11.3477 22.3617 11.3477 19.1903C11.3477 16.0189 12.7875 13.8623 15.4165 13.8623C18.0141 13.8623 19.4851 16.0189 19.4851 19.1903C19.4851 22.3617 18.0141 24.4866 15.4165 24.4866Z" fill="black"/>
<path d="M32.856 32.8592C35.2346 32.8592 37.3002 32.2883 38.646 31.0197C39.8353 29.9097 40.5552 28.3557 40.5552 26.0723V11.0397H36.4552V12.7523H36.3926C35.4223 11.3886 33.9514 10.5957 31.9483 10.5957C27.8797 10.5957 25.0003 13.7037 25.0003 18.556C25.0003 23.4717 28.5056 26.326 32.0736 26.326C34.1078 26.326 35.3285 25.5014 36.2674 24.4232H36.3613V26.1992C36.3613 28.4192 35.2033 29.5926 32.7933 29.5926C30.8216 29.5926 29.914 28.7997 29.5697 27.7849H25.3445C25.7827 30.9563 28.4743 32.8592 32.856 32.8592ZM32.7933 22.8692C30.6025 22.8692 29.1629 21.2517 29.1629 18.4926C29.1629 15.7652 30.6025 14.0526 32.762 14.0526C35.3285 14.0526 36.5804 16.0823 36.5804 18.4609C36.5804 20.8712 35.485 22.8692 32.7933 22.8692Z" fill="black"/>
<path d="M50.9012 27.7849C55.8775 27.7849 59.2889 24.0426 59.2889 19.1903C59.2889 14.338 55.8775 10.5957 50.9012 10.5957C45.9249 10.5957 42.5134 14.338 42.5134 19.1903C42.5134 24.0426 45.9249 27.7849 50.9012 27.7849ZM50.9012 24.4866C48.2722 24.4866 46.8326 22.3617 46.8326 19.1903C46.8326 16.0189 48.2722 13.8623 50.9012 13.8623C53.4989 13.8623 54.9699 16.0189 54.9699 19.1903C54.9699 22.3617 53.4989 24.4866 50.9012 24.4866Z" fill="black"/>
<path d="M193.774 8.36928C193.774 7.63947 194.358 7.04785 195.078 7.04785H197.686C198.407 7.04785 198.991 7.63947 198.991 8.36928C198.991 9.09909 198.407 9.69072 197.686 9.69072H195.078C194.358 9.69072 193.774 9.09909 193.774 8.36928Z" fill="black"/>
<path fill-rule="evenodd" clip-rule="evenodd" d="M85.1023 0C95.185 0 103.359 8.28274 103.359 18.5C103.359 28.7173 95.185 37 85.1023 37C75.0193 37 66.8455 28.7173 66.8455 18.5C66.8455 8.28274 75.0193 0 85.1023 0ZM84.4424 1.38435C82.3596 1.68136 80.3764 3.37725 78.8369 6.21359C78.3903 7.03632 77.9874 7.94525 77.6363 8.92666C79.7296 8.39361 82.0292 8.07934 84.4424 8.03073V1.38435ZM76.0932 9.37099C76.5299 7.98236 77.064 6.70477 77.6805 5.5691C78.4436 4.16305 79.3493 2.94885 80.3698 2.01629C74.8207 3.64934 70.4468 8.08153 68.8352 13.7045C69.7555 12.6705 70.9537 11.7527 72.3413 10.9794C73.4621 10.3547 74.7228 9.81342 76.0932 9.37099ZM75.6548 10.9345C75.1287 13.0557 74.8186 15.3859 74.7706 17.8313H68.2115C68.5046 15.7207 70.1783 13.7111 72.9774 12.1512C73.7893 11.6987 74.6862 11.2904 75.6548 10.9345ZM76.0907 17.8313C76.1451 15.1626 76.5243 12.6571 77.1516 10.4434C79.3363 9.80778 81.8088 9.42353 84.4424 9.36831V12.257C83.4599 14.8057 81.4561 16.8361 78.9407 17.8313H76.0907ZM74.7706 19.1687H68.2115C68.5046 21.2793 70.1783 23.2888 72.9774 24.8488C73.7893 25.3013 74.6862 25.7096 75.6548 26.0655C75.1287 23.9443 74.8186 21.6141 74.7706 19.1687ZM77.1516 26.5566C76.5243 24.3429 76.1451 21.8374 76.0907 19.1687H78.9407C81.4561 20.1639 83.4599 22.1943 84.4424 24.743V27.6317C81.8088 27.5765 79.3363 27.1922 77.1516 26.5566ZM76.0932 27.629C74.7228 27.1866 73.4621 26.6453 72.3413 26.0206C70.9537 25.2473 69.7555 24.3295 68.8352 23.2955C70.4468 28.9185 74.8207 33.3507 80.3698 34.9837C79.3493 34.0511 78.4436 32.8369 77.6805 31.4309C77.064 30.2952 76.5299 29.0176 76.0932 27.629ZM84.4424 35.6156C82.3596 35.3186 80.3764 33.6227 78.8369 30.7864C78.3903 29.9637 77.9874 29.0547 77.6363 28.0734C79.7296 28.6064 82.0292 28.9207 84.4424 28.9692V35.6156ZM89.8348 34.9837C90.8553 34.0511 91.7609 32.8369 92.524 31.4309C93.1402 30.2952 93.6751 29.0176 94.1115 27.629C95.4816 27.1866 96.7423 26.6453 97.8633 26.0206C99.2508 25.2473 100.449 24.3295 101.369 23.2955C99.7574 28.9185 95.384 33.3507 89.8348 34.9837ZM92.5688 28.0734C92.2173 29.0547 91.8138 29.9637 91.3675 30.7864C89.8282 33.6227 87.845 35.3186 85.7621 35.6156V28.9692C88.1754 28.9207 90.475 28.6064 92.5688 28.0734ZM94.5496 26.0655C95.5182 25.7096 96.4155 25.3013 97.227 24.8488C100.027 23.2889 101.7 21.2793 101.993 19.1687H95.4342C95.3858 21.6141 95.0754 23.9443 94.5496 26.0655ZM94.1142 19.1687C94.0594 21.8374 93.6806 24.3429 93.0526 26.5566C90.8683 27.1922 88.3958 27.5765 85.7621 27.6317V24.7451C86.7444 22.1955 88.7487 20.1642 91.2647 19.1687H94.1142ZM95.4342 17.8313H101.993C101.7 15.7207 100.027 13.7111 97.227 12.1512C96.4155 11.6987 95.5182 11.2904 94.5496 10.9345C95.0754 13.0557 95.3858 15.3859 95.4342 17.8313ZM93.0526 10.4434C93.6806 12.6571 94.0594 15.1626 94.1142 17.8313H91.2648C88.7487 16.8358 86.7444 14.8045 85.7621 12.2549V9.36831C88.3958 9.42353 90.8683 9.80778 93.0526 10.4434ZM94.1115 9.37099C95.4816 9.81342 96.7423 10.3547 97.8633 10.9794C99.2508 11.7527 100.449 12.6705 101.369 13.7045C99.7574 8.08153 95.384 3.64934 89.8348 2.01629C90.8553 2.94885 91.7609 4.16305 92.524 5.5691C93.1402 6.70477 93.6751 7.98236 94.1115 9.37099ZM85.7621 1.38435C87.845 1.68136 89.8282 3.37725 91.3675 6.21359C91.8138 7.03633 92.2173 7.94525 92.5688 8.92666C90.475 8.39361 88.1754 8.07934 85.7621 8.03073V1.38435Z" fill="black"/>
</g>
<defs>
<clipPath id="clip0_613_1295">
<rect width="199" height="37" fill="white"/>
</clipPath>
</defs>
</svg>
