<svg width="222" height="56" viewBox="0 0 222 56" fill="none" xmlns="http://www.w3.org/2000/svg">
<path d="M25.5963 10.9531V3.95312H3.39627V52.0473H25.5963V45.0473C21.0486 45.0473 16.6871 43.2511 13.4715 40.0542C10.2558 36.8573 8.44926 32.5214 8.44926 28.0002C8.44926 23.479 10.2558 19.143 13.4715 15.9461C16.6871 12.7492 21.0486 10.9531 25.5963 10.9531Z" fill="black"/>
<path d="M25.5963 10.9531V45.0473C30.144 45.0473 34.5054 43.2511 37.7211 40.0542C40.9368 36.8573 42.7433 32.5214 42.7433 28.0002C42.7433 23.479 40.9368 19.143 37.7211 15.9461C34.5054 12.7492 30.144 10.9531 25.5963 10.9531Z" fill="black"/>
<path d="M55.2018 15.2354H60.1719V39.0354H55.2018V15.2354Z" fill="black"/>
<path d="M62.9552 30.8822C62.9552 29.1699 63.4666 27.4962 64.4246 26.0731C65.3825 24.6501 66.7438 23.5418 68.3361 22.8887C69.9283 22.2358 71.6797 22.0675 73.3682 22.4051C75.0567 22.7428 76.6064 23.5713 77.8208 24.7855C79.0351 25.9998 79.8597 27.5451 80.1897 29.2258C80.5196 30.9064 80.3403 32.6466 79.6743 34.2258C79.0083 35.8048 77.8859 37.1519 76.449 38.096C75.0121 39.0403 73.3256 39.539 71.6033 39.5293C70.461 39.5382 69.3283 39.3203 68.2718 38.8881C67.2153 38.4561 66.2561 37.8187 65.4506 37.0134C64.6451 36.208 64.0096 35.2507 63.581 34.1979C63.1525 33.1451 62.9398 32.0179 62.9552 30.8822ZM75.4137 30.8822C75.3942 30.144 75.1561 29.4279 74.7293 28.8236C74.3026 28.2191 73.7062 27.7531 73.0143 27.484C72.3226 27.2149 71.5665 27.1544 70.8405 27.3104C70.1144 27.4662 69.4507 27.8314 68.9323 28.3604C68.4139 28.8893 68.0639 29.5583 67.926 30.284C67.7882 31.0097 67.8685 31.7596 68.1571 32.44C68.4457 33.1204 68.9297 33.7013 69.5486 34.1096C70.1674 34.5181 70.8935 34.736 71.6364 34.7363C72.1422 34.7462 72.6445 34.6522 73.112 34.4601C73.5796 34.2683 74.0022 33.9825 74.3536 33.6208C74.705 33.2591 74.9775 32.8291 75.1543 32.358C75.3311 31.8868 75.4081 31.3844 75.3806 30.8822H75.4137Z" fill="black"/>
<path d="M99.9166 22.7292V38.228C99.9166 43.6962 95.6091 46.0186 91.2519 46.0186C89.715 46.1439 88.1734 45.8404 86.8008 45.142C85.4281 44.4437 84.2787 43.3782 83.4819 42.0657L87.6734 39.661C88.0131 40.3418 88.5533 40.9035 89.2223 41.2713C89.8913 41.6391 90.657 41.7955 91.4176 41.7198C91.9022 41.7791 92.3939 41.7313 92.8576 41.5798C93.3215 41.4281 93.7458 41.1766 94.1003 40.8429C94.455 40.5092 94.731 40.1019 94.9088 39.6498C95.0866 39.1978 95.1616 38.7122 95.1287 38.228V36.7292C94.5503 37.4264 93.8164 37.9798 92.9854 38.3458C92.1542 38.7118 91.2488 38.8801 90.3407 38.8374C88.1438 38.8374 86.0369 37.9698 84.4834 36.4253C82.9299 34.881 82.0572 32.7863 82.0572 30.6021C82.0572 28.418 82.9299 26.3234 84.4834 24.779C86.0369 23.2345 88.1438 22.3668 90.3407 22.3668C91.2488 22.3242 92.1542 22.4925 92.9854 22.8585C93.8164 23.2245 94.5503 23.7779 95.1287 24.4751V22.828L99.9166 22.7292ZM95.1287 30.5527C95.1616 29.7648 94.9569 28.9849 94.5405 28.3135C94.1242 27.6422 93.5155 27.11 92.7924 26.7854C92.0694 26.4608 91.2654 26.3586 90.4834 26.4921C89.7016 26.6255 88.9776 26.9883 88.4049 27.534C87.8321 28.0797 87.4367 28.7833 87.2694 29.5543C87.102 30.3253 87.1705 31.1282 87.4658 31.8602C87.7614 32.5921 88.2703 33.2195 88.9272 33.6615C89.5843 34.1036 90.3593 34.3403 91.1525 34.341C91.6703 34.378 92.19 34.3067 92.678 34.1318C93.1663 33.9567 93.6123 33.6818 93.9868 33.3247C94.3616 32.9678 94.6568 32.5366 94.8535 32.0591C95.0501 31.5816 95.1439 31.0684 95.1287 30.5527Z" fill="black"/>
<path d="M102.716 30.8824C102.716 29.1715 103.227 27.4991 104.183 26.0767C105.14 24.6543 106.499 23.5459 108.089 22.8921C109.68 22.238 111.429 22.0677 113.117 22.4027C114.805 22.7377 116.355 23.5629 117.57 24.7738C118.786 25.9849 119.613 27.5272 119.947 29.2056C120.281 30.8841 120.106 32.6232 119.445 34.2029C118.784 35.7828 117.667 37.132 116.234 38.0803C114.802 39.0285 113.119 39.5328 111.398 39.5295C110.253 39.5405 109.118 39.3243 108.059 38.8934C106.999 38.4625 106.037 37.8258 105.229 37.0204C104.42 36.215 103.781 35.2572 103.35 34.2032C102.919 33.1493 102.703 32.0202 102.716 30.8824ZM115.175 30.8824C115.155 30.1436 114.917 29.4268 114.489 28.822C114.062 28.2173 113.464 27.7514 112.772 27.4827C112.079 27.2141 111.322 27.1547 110.596 27.3119C109.869 27.4691 109.205 27.836 108.688 28.3666C108.17 28.8971 107.821 29.5678 107.685 30.2944C107.549 31.0211 107.632 31.7715 107.923 32.4516C108.214 33.1318 108.701 33.7114 109.322 34.1179C109.943 34.5243 110.671 34.7395 111.414 34.7366C111.92 34.7464 112.422 34.6524 112.89 34.4603C113.357 34.2685 113.78 33.9827 114.131 33.621C114.483 33.2593 114.755 32.8293 114.932 32.3582C115.109 31.887 115.186 31.3846 115.158 30.8824H115.175Z" fill="black"/>
<path d="M122.382 18.3644C122.382 17.7846 122.555 17.2177 122.879 16.7356C123.203 16.2534 123.663 15.8777 124.202 15.6558C124.741 15.4339 125.334 15.3758 125.906 15.4889C126.478 15.6021 127.003 15.8813 127.416 16.2913C127.828 16.7013 128.109 17.2238 128.223 17.7924C128.337 18.3611 128.278 18.9506 128.055 19.4864C127.832 20.022 127.454 20.4799 126.969 20.802C126.484 21.1242 125.914 21.2962 125.331 21.2962C124.551 21.2876 123.806 20.976 123.255 20.428C122.704 19.88 122.39 19.1393 122.382 18.3644ZM122.862 22.7291H127.832V39.035H122.862V22.7291Z" fill="black"/>
<path d="M149.104 30.8822C149.16 31.9666 149 33.0514 148.632 34.0739C148.265 35.0964 147.697 36.0365 146.963 36.8401C146.228 37.6439 145.341 38.2951 144.352 38.7566C143.364 39.2181 142.293 39.4807 141.202 39.5292C140.276 39.5905 139.348 39.4431 138.488 39.098C137.627 38.7528 136.856 38.219 136.232 37.5363V45.5904H131.262V22.7292H136.232V24.261C136.857 23.5803 137.628 23.0489 138.489 22.7067C139.35 22.3643 140.277 22.22 141.202 22.2845C142.289 22.3331 143.355 22.5942 144.34 23.0526C145.326 23.5109 146.211 24.1579 146.944 24.9562C147.678 25.7546 148.247 26.6888 148.617 27.7057C148.988 28.7224 149.154 29.8017 149.104 30.8822ZM144.134 30.8822C144.115 30.1171 143.868 29.375 143.426 28.7486C142.984 28.1222 142.366 27.6393 141.649 27.3608C140.932 27.0821 140.149 27.0202 139.396 27.1824C138.644 27.3446 137.957 27.7241 137.421 28.2731C136.885 28.822 136.523 29.5161 136.382 30.2685C136.241 31.0207 136.326 31.7976 136.628 32.5019C136.929 33.206 137.432 33.8062 138.075 34.2272C138.718 34.6482 139.471 34.871 140.241 34.8681C140.768 34.8903 141.294 34.8015 141.784 34.6075C142.275 34.4135 142.718 34.1187 143.086 33.7423C143.454 33.366 143.737 32.9165 143.918 32.4237C144.098 31.9307 144.172 31.4055 144.134 30.8822Z" fill="black"/>
<path d="M164.23 34.1433C164.23 37.8986 160.917 39.4963 157.405 39.4963C155.972 39.6244 154.534 39.3225 153.276 38.6296C152.018 37.9367 150.997 36.8845 150.347 35.6092L154.621 33.2045C154.791 33.7922 155.158 34.3043 155.661 34.6551C156.165 35.0059 156.775 35.1741 157.388 35.1316C158.564 35.1316 159.161 34.7692 159.161 34.1104C159.161 32.3151 151.093 33.2704 151.093 27.621C151.093 24.0633 154.108 22.2845 157.521 22.2845C158.818 22.2267 160.107 22.5194 161.25 23.1313C162.393 23.7431 163.349 24.6515 164.015 25.7598L159.741 27.9998C159.552 27.5749 159.243 27.2135 158.852 26.9592C158.461 26.7049 158.004 26.5687 157.537 26.5669C156.676 26.5669 156.162 26.8963 156.162 27.4727C156.162 29.3504 164.23 28.1151 164.23 34.1433Z" fill="black"/>
<path d="M182.239 22.7295V39.0354H177.269V37.5036C176.704 38.1817 175.986 38.7182 175.176 39.0701C174.364 39.4221 173.481 39.5794 172.597 39.5295C169.283 39.5295 166.45 37.1742 166.45 32.7766V22.7295H171.42V32.0354C171.381 32.4244 171.427 32.8172 171.556 33.1868C171.686 33.5563 171.893 33.8936 172.164 34.1756C172.438 34.4574 172.769 34.6771 173.135 34.8196C173.501 34.9619 173.894 35.0235 174.287 35.0001C176.076 35.0001 177.335 33.946 177.335 31.706V22.7295H182.239Z" fill="black"/>
<path d="M210.403 29.0208V39.0349H205.433V29.449C205.433 27.802 204.654 26.7808 203.08 26.7808C201.506 26.7808 200.512 27.9173 200.512 29.8443V39.0349H195.542V29.449C195.542 27.802 194.764 26.7808 193.19 26.7808C191.616 26.7808 190.622 27.9173 190.622 29.8443V39.0349H185.652V22.729H190.622V24.2279C191.137 23.5658 191.808 23.0413 192.578 22.702C193.347 22.3627 194.19 22.2191 195.029 22.2843C195.869 22.2407 196.707 22.4153 197.459 22.7906C198.211 23.166 198.852 23.7295 199.32 24.4255C199.866 23.6982 200.589 23.1204 201.42 22.746C202.25 22.3715 203.165 22.2127 204.074 22.2843C207.951 22.2843 210.403 24.9526 210.403 29.0208Z" fill="black"/>
<path d="M214.578 22.6308C216.591 22.6308 218.223 21.0085 218.223 19.0073C218.223 17.0061 216.591 15.3838 214.578 15.3838C212.565 15.3838 210.933 17.0061 210.933 19.0073C210.933 21.0085 212.565 22.6308 214.578 22.6308Z" fill="black"/>
</svg>
