<svg width="95" height="80" viewBox="0 0 95 80" fill="none" xmlns="http://www.w3.org/2000/svg">
<path d="M47.3875 42.1895C56.0726 42.1895 63.1298 35.0843 63.1298 26.3643C63.1298 17.6443 56.0619 10.5391 47.3875 10.5391C38.7025 10.5391 31.6452 17.6443 31.6452 26.3643C31.6452 35.0843 38.7025 42.1895 47.3875 42.1895ZM47.3875 13.2197C54.5947 13.2197 60.4526 19.1084 60.4526 26.3535C60.4526 33.5987 54.5947 39.4874 47.3875 39.4874C40.1804 39.4874 34.3225 33.5987 34.3225 26.3535C34.3225 19.1084 40.1804 13.2197 47.3875 13.2197Z" fill="#FB8E26"/>
<path d="M94.004 46.1946L71.3544 35.4829C72.7466 32.1457 73.6033 29.0237 73.6033 26.3538C73.6033 11.8205 61.8447 0 47.3875 0C32.9303 0 21.1718 11.8205 21.1718 26.3538C21.1718 29.0129 22.0285 32.1457 23.4207 35.4829L0.771053 46.1946C0.299855 46.4207 0 46.8943 0 47.4111V78.6524C0 79.1369 0.267726 79.589 0.685378 79.8259C1.11374 80.0627 1.62778 80.0519 2.04543 79.7936L24.77 65.4863L46.6593 79.7828C46.8842 79.9228 47.1305 79.9981 47.3875 79.9981C47.6446 79.9981 47.8909 79.9228 48.1158 79.7828L70.005 65.4863L92.7296 79.7936C93.1473 80.0519 93.6613 80.0735 94.0897 79.8259C94.5181 79.589 94.7751 79.1369 94.7751 78.6524V47.4111C94.7751 46.8836 94.4752 46.4099 94.004 46.1946ZM47.3875 2.69136C60.3669 2.69136 70.926 13.3061 70.926 26.3538C70.926 28.9483 69.9729 32.1026 68.4522 35.4829C68.4308 35.5152 68.4094 35.5368 68.388 35.5691C68.3773 35.6014 68.3773 35.6337 68.3666 35.6767C63.0442 47.4111 50.9429 61.9229 47.3875 66.0568C43.8321 61.9229 31.7309 47.4111 26.4085 35.6767C26.3978 35.6444 26.3978 35.6014 26.3871 35.5691C26.3764 35.5368 26.3443 35.5152 26.3228 35.4829C24.8022 32.0918 23.8491 28.9375 23.8491 26.3538C23.8491 13.3061 34.4082 2.69136 47.3875 2.69136ZM92.0978 76.2194L70.7011 62.7411C70.2621 62.4612 69.6945 62.472 69.2661 62.7519L47.3983 77.0376L25.5304 62.7519C25.0913 62.4612 24.5344 62.4612 24.0954 62.7411L2.67726 76.2194V48.2615L24.5344 37.9267C31.2169 51.8464 45.5991 68.113 46.3916 68.9958C46.6486 69.2757 47.0127 69.448 47.3875 69.448C47.7624 69.448 48.1265 69.2865 48.3835 68.9958C49.176 68.113 63.5582 51.8464 70.2406 37.9267L92.0978 48.2615V76.2194Z" fill="#FB8E26"/>
</svg>
