<svg width="42" height="40" viewBox="0 0 42 40" fill="none" xmlns="http://www.w3.org/2000/svg">
<path d="M41.3936 15.5492L32.1322 2.32358C31.0738 0.809421 28.9814 0.441909 27.4673 1.50035L21.9986 5.32741L20.3963 3.86714C19.475 3.02921 18.1226 2.94101 17.1033 3.65644L7.00402 10.7274C5.98478 11.4429 5.60256 12.7463 6.07298 13.893L6.89621 15.902L1.42759 19.7291C-0.0865729 20.7875 -0.454088 22.8799 0.604355 24.3941L9.86574 37.6197C10.5175 38.5508 11.5563 39.0457 12.6147 39.0457C13.2763 39.0457 13.9476 38.8497 14.5307 38.443L40.5704 20.2093C41.3054 19.6948 41.7905 18.9304 41.9473 18.0483C42.1042 17.1712 41.9081 16.2843 41.3936 15.5492ZM7.20983 13.4323C6.95502 12.8149 7.16082 12.1142 7.70965 11.732L17.809 4.66097C18.054 4.48947 18.3382 4.40126 18.6224 4.40126C18.9654 4.40126 19.3035 4.52867 19.573 4.77368L20.9745 6.04774L7.93016 15.1817L7.20983 13.4323ZM40.7419 17.8376C40.6439 18.3962 40.3352 18.8814 39.8697 19.2097L13.83 37.4433C12.8696 38.1146 11.5416 37.8794 10.8703 36.9239L1.6138 23.6983C0.942469 22.7378 1.17768 21.4099 2.13322 20.7385L28.1729 2.50489C28.5453 2.24518 28.9667 2.12267 29.3881 2.12267C30.0595 2.12267 30.7161 2.43629 31.1326 3.02921L40.394 16.2549C40.7174 16.7155 40.8399 17.279 40.7419 17.8376Z" fill="white"/>
<path d="M16.1772 13.0842C14.3347 14.3729 13.1097 16.3036 12.7176 18.5136C12.3256 20.7285 12.8205 22.9581 14.1093 24.8006C15.746 27.1331 18.3578 28.3875 21.0137 28.3875C22.6798 28.3875 24.3605 27.8926 25.8257 26.8685C29.6233 24.2076 30.5544 18.9497 27.8936 15.1521C25.2328 11.3495 19.9748 10.4234 16.1772 13.0842ZM25.125 25.8639C21.8761 28.1376 17.3875 27.3438 15.1138 24.0998C14.0113 22.5269 13.5899 20.6207 13.9231 18.7292C14.2563 16.8377 15.3049 15.1913 16.8779 14.0887C18.1324 13.2116 19.5681 12.7902 20.9892 12.7902C23.258 12.7902 25.4925 13.8584 26.889 15.8528C29.1627 19.0967 28.3738 23.5902 25.125 25.8639Z" fill="white"/>
<path d="M17.711 15.2748C15.1188 17.0878 14.4867 20.6748 16.2997 23.267C17.417 24.8596 19.1957 25.7122 21.0088 25.7122C22.1457 25.7122 23.2923 25.3741 24.292 24.6783C25.5464 23.8011 26.3843 22.483 26.6539 20.9737C26.9185 19.4644 26.5803 17.9405 25.7032 16.686C23.8901 14.0889 20.3032 13.4568 17.711 15.2748ZM25.4484 20.7581C25.2377 21.9439 24.5811 22.9779 23.5912 23.6688C22.6014 24.3597 21.4057 24.6293 20.2199 24.4185C19.034 24.2078 18.0001 23.5512 17.3043 22.5614C15.8783 20.5229 16.3732 17.7053 18.4117 16.2744C19.1957 15.7256 20.1023 15.461 20.9941 15.461C22.4201 15.461 23.8215 16.1323 24.6987 17.3818C25.3896 18.3717 25.6591 19.5722 25.4484 20.7581Z" fill="white"/>
</svg>
