<svg width="38" height="38" viewBox="0 0 38 38" fill="none" xmlns="http://www.w3.org/2000/svg">
<path d="M24.7491 23.0312H13.2347C10.6795 23.0312 8.59888 25.1119 8.59888 27.667V31.5687C8.59888 32.6476 9.47493 33.5236 10.5538 33.5236H27.4219C28.5007 33.5236 29.3768 32.6476 29.3768 31.5687V27.667C29.3808 25.1078 27.3042 23.0312 24.7491 23.0312ZM28.3669 31.5647C28.3669 32.0838 27.9451 32.5056 27.4259 32.5056H10.5578C10.0387 32.5056 9.61688 32.0838 9.61688 31.5647V27.663C9.61688 25.6675 11.2392 24.0411 13.2387 24.0411H24.7531C26.7486 24.0411 28.375 25.6635 28.375 27.663V31.5647H28.3669Z" fill="white"/>
<path d="M32.6012 23.0557V14.4655C33.9923 13.3623 34.8846 11.663 34.8846 9.75673V6.36608C34.8846 5.01955 33.7895 3.92449 32.443 3.92449H24.23C23.9785 1.73435 22.1129 0.0268555 19.8578 0.0268555H18.126C15.8669 0.0268555 14.0053 1.73435 13.7539 3.92449H5.53681C4.19028 3.92449 3.09522 5.01955 3.09522 6.36608V9.75673C3.09522 11.663 3.99155 13.3623 5.37863 14.4655V23.0557C2.8397 23.3112 0.852356 25.4608 0.852356 28.0646V31.2484C0.852356 32.2705 1.6838 33.0979 2.7018 33.0979H5.39891C5.60576 35.8193 7.87701 37.9729 10.6512 37.9729H27.3286C30.1028 37.9729 32.3741 35.8193 32.5809 33.0979H35.2983C36.3204 33.0979 37.1477 32.2664 37.1477 31.2484V28.0646C37.1518 25.4527 35.1523 23.299 32.6012 23.0557ZM18.126 1.04081H19.8578C21.5572 1.04081 22.9646 2.29406 23.212 3.92449H14.7719C15.0152 2.29406 16.4266 1.04081 18.126 1.04081ZM4.10917 9.75673V6.36608C4.10917 5.57925 4.74998 4.93844 5.53681 4.93844H32.4471C33.2339 4.93844 33.8747 5.57925 33.8747 6.36608V9.75673C33.8747 12.5147 31.6318 14.7535 28.878 14.7535H27.8762V13.5286C27.8762 12.2551 26.8379 11.2168 25.5644 11.2168C24.2908 11.2168 23.2526 12.2551 23.2526 13.5286V14.7535H14.7354V13.5286C14.7354 12.2551 13.6971 11.2168 12.4236 11.2168C11.15 11.2168 10.1118 12.2551 10.1118 13.5286V14.7535H9.10997C6.35202 14.7575 4.10917 12.5147 4.10917 9.75673ZM24.2625 13.5327C24.2625 12.8189 24.8465 12.2348 25.5603 12.2348C26.2741 12.2348 26.8582 12.8189 26.8582 13.5327V17.0004C26.8582 17.7142 26.2741 18.2983 25.5603 18.2983C24.8465 18.2983 24.2625 17.7142 24.2625 17.0004V13.5327ZM11.1216 13.5327C11.1216 12.8189 11.7057 12.2348 12.4195 12.2348C13.1333 12.2348 13.7174 12.8189 13.7174 13.5327V17.0004C13.7174 17.7142 13.1333 18.2983 12.4195 18.2983C11.7057 18.2983 11.1216 17.7142 11.1216 17.0004V13.5327ZM1.86631 31.2484V28.0646C1.86631 26.0205 3.3994 24.3252 5.37863 24.0778V32.088H2.7018C2.23944 32.0839 1.86631 31.7108 1.86631 31.2484ZM27.3286 36.959H10.6512C8.30287 36.959 6.39258 35.0487 6.39258 32.7004V32.5909V15.1144C7.2078 15.5281 8.12847 15.7674 9.10592 15.7674H10.1077V16.9923C10.1077 18.2658 11.146 19.3041 12.4195 19.3041C13.693 19.3041 14.7313 18.2658 14.7313 16.9923V15.7674H23.2485V16.9923C23.2485 18.2658 24.2868 19.3041 25.5603 19.3041C26.8338 19.3041 27.8721 18.2658 27.8721 16.9923V15.7674H28.8739C29.8513 15.7674 30.772 15.5281 31.5872 15.1144V32.7004C31.5872 35.0487 29.6769 36.959 27.3286 36.959ZM36.1378 31.2484C36.1378 31.7108 35.7647 32.0839 35.3023 32.0839H32.6255V24.0778C34.6047 24.3292 36.1378 26.0205 36.1378 28.0646V31.2484Z" fill="white"/>
</svg>
