<svg width="42" height="42" viewBox="0 0 42 42" fill="none" xmlns="http://www.w3.org/2000/svg">
<path d="M21 0C9.42358 0 0 9.41869 0 21C0 32.5813 9.41869 42 21 42C32.5813 42 42 32.5813 42 21C42 9.41869 32.5813 0 21 0ZM21 40.7719C10.0939 40.7719 1.22321 31.9012 1.22321 20.9951C1.22321 10.089 10.0939 1.21831 21 1.21831C31.9061 1.21831 40.7768 10.089 40.7768 20.9951C40.7768 31.9012 31.9061 40.7719 21 40.7719Z" fill="white"/>
<path d="M21.0001 4.07568C11.6695 4.07568 4.08069 11.6644 4.08069 20.9951C4.08069 30.3257 11.6695 37.9145 21.0001 37.9145C30.3307 37.9145 37.9195 30.3257 37.9195 20.9951C37.9195 11.6644 30.3307 4.07568 21.0001 4.07568ZM21.6117 36.6815V35.0668C21.6117 34.7292 21.3377 34.4552 21.0001 34.4552C20.6625 34.4552 20.3885 34.7292 20.3885 35.0668V36.6815C12.2175 36.3683 5.63171 29.7826 5.31857 21.6116H6.93321C7.27081 21.6116 7.54481 21.3376 7.54481 21C7.54481 20.6624 7.27081 20.3884 6.93321 20.3884H5.31857C5.63171 12.2173 12.2175 5.6316 20.3885 5.31846V6.93309C20.3885 7.2707 20.6625 7.54469 21.0001 7.54469C21.3377 7.54469 21.6117 7.2707 21.6117 6.93309V5.31846C29.7827 5.6316 36.3684 12.2173 36.6816 20.3884H35.0669C34.7293 20.3884 34.4553 20.6624 34.4553 21C34.4553 21.3376 34.7293 21.6116 35.0669 21.6116H36.6816C36.3684 29.7777 29.7827 36.3634 21.6117 36.6815Z" fill="white"/>
<path d="M23.2457 18.945C23.1968 18.8667 23.1283 18.7982 23.0549 18.7541L13.7928 12.9512C13.5531 12.7996 13.2399 12.8338 13.0344 13.0393C12.8338 13.2399 12.7996 13.5531 12.9463 13.7977L18.7492 23.0598C18.7982 23.1381 18.8667 23.2066 18.9401 23.2506L28.2022 29.0535C28.3049 29.1171 28.4126 29.1465 28.5251 29.1465C28.6817 29.1465 28.8382 29.0829 28.9557 28.9655C29.1563 28.7649 29.1905 28.4517 29.0437 28.2071L23.2457 18.945ZM21.7534 19.3804L19.3853 21.7485L15.4025 15.3977L21.7534 19.3804ZM20.2464 22.6146L22.6146 20.2464L26.5973 26.5973L20.2464 22.6146Z" fill="white"/>
</svg>
