<svg width="56" height="56" viewBox="0 0 56 56" fill="none" xmlns="http://www.w3.org/2000/svg">
<circle cx="27.6708" cy="27.6708" r="27.0208" stroke="#FB8E26" stroke-width="1.3"/>
<path d="M27.6667 27.5195C31.0498 27.5195 33.7989 24.7663 33.7989 21.3873C33.7989 18.0083 31.0457 15.255 27.6667 15.255C24.2835 15.255 21.5344 18.0083 21.5344 21.3873C21.5344 24.7663 24.2877 27.5195 27.6667 27.5195ZM27.6667 16.2937C30.4742 16.2937 32.756 18.5756 32.756 21.3831C32.756 24.1906 30.4742 26.4725 27.6667 26.4725C24.8592 26.4725 22.5773 24.1906 22.5773 21.3831C22.5773 18.5756 24.8592 16.2937 27.6667 16.2937Z" fill="#FB8E26"/>
<path d="M45.8299 29.0712L37.0069 24.9204C37.5492 23.6272 37.883 22.4174 37.883 21.3829C37.883 15.7512 33.3025 11.1708 27.6708 11.1708C22.0392 11.1708 17.4587 15.7512 17.4587 21.3829C17.4587 22.4133 17.7925 23.6272 18.3348 24.9204L9.51181 29.0712C9.32826 29.1588 9.21146 29.3423 9.21146 29.5426V41.6486C9.21146 41.8363 9.31575 42.0115 9.47844 42.1033C9.6453 42.1951 9.84554 42.1909 10.0082 42.0908L18.8604 36.5467L27.3872 42.0866C27.4748 42.1408 27.5707 42.17 27.6708 42.17C27.771 42.17 27.8669 42.1408 27.9545 42.0866L36.4813 36.5467L45.3335 42.0908C45.4962 42.1909 45.6964 42.1992 45.8633 42.1033C46.0301 42.0115 46.1302 41.8363 46.1302 41.6486V29.5426C46.1261 29.3423 46.0093 29.1588 45.8299 29.0712ZM27.6667 12.2137C32.7227 12.2137 36.8359 16.3269 36.8359 21.3829C36.8359 22.3882 36.4646 23.6105 35.8722 24.9204C35.8639 24.9329 35.8555 24.9413 35.8472 24.9538C35.843 24.9663 35.843 24.9788 35.8389 24.9955C33.7656 29.5426 29.0516 35.1659 27.6667 36.7678C26.2817 35.1659 21.5678 29.5426 19.4945 24.9955C19.4903 24.983 19.4903 24.9663 19.4861 24.9538C19.482 24.9413 19.4695 24.9329 19.4611 24.9204C18.8687 23.6064 18.4975 22.3841 18.4975 21.3829C18.4975 16.3311 22.6107 12.2137 27.6667 12.2137ZM45.0832 40.7058L36.7483 35.4829C36.5772 35.3745 36.3561 35.3787 36.1893 35.4871L27.6708 41.0228L19.1524 35.4871C18.9814 35.3745 18.7645 35.3745 18.5934 35.4829L10.2585 40.7058V29.8721L18.7728 25.8674C21.3759 31.2613 26.9784 37.5646 27.2871 37.9067C27.3872 38.0151 27.529 38.0819 27.675 38.0819C27.8252 38.0819 27.9629 38.0193 28.063 37.9067C28.3717 37.5646 33.9742 31.2613 36.5772 25.8674L45.0915 29.8721V40.7058H45.0832Z" fill="#FB8E26"/>
</svg>
