<svg width="97" height="80" viewBox="0 0 97 80" fill="none" xmlns="http://www.w3.org/2000/svg">
<path d="M92.5467 27.863V13.8489C92.5467 6.21015 86.3691 0 78.7704 0H13.7763C6.17761 0 0 6.21015 0 13.8489V66.1511C0 73.7898 6.17761 80 13.7763 80H78.7704C86.3691 80 92.5467 73.7898 92.5467 66.1511V52.2668C92.5467 52.2314 92.5233 52.196 92.5233 52.1606C95.2128 50.4014 96.9979 47.3672 96.9979 43.9197V36.1039C96.9979 32.6446 95.2245 29.6222 92.5467 27.863ZM89.6106 66.1511C89.6106 72.1606 84.7484 77.0484 78.7704 77.0484H13.7763C7.79835 77.0484 2.93613 72.1606 2.93613 66.1511V13.8489C2.93613 7.83943 7.79835 2.95159 13.7763 2.95159H78.7704C84.7484 2.95159 89.6106 7.83943 89.6106 13.8489V26.5761C88.8472 26.3754 88.0368 26.2692 87.2147 26.2692H76.1396C70.7489 26.2692 66.3565 30.6848 66.3565 36.1039V43.9197C66.3565 49.3388 70.7489 53.7544 76.1396 53.7544H87.2147C88.0486 53.7544 88.8472 53.6364 89.6106 53.4475V66.1511ZM94.0618 43.9079C94.0618 47.6978 90.9964 50.791 87.2147 50.791H76.1396C72.3697 50.791 69.2926 47.7096 69.2926 43.9079V36.0921C69.2926 32.3022 72.3579 29.209 76.1396 29.209H87.2147C90.9847 29.209 94.0618 32.2904 94.0618 36.0921V43.9079Z" fill="#FB8E26"/>
<path d="M56.268 27.7918C56.268 28.6064 56.9257 29.2676 57.736 29.2676C58.5464 29.2676 59.2041 28.6064 59.2041 27.7918C59.2041 21.1212 54.1892 15.6194 47.7532 14.8874V12.3845C47.7532 11.5698 47.0955 10.9087 46.2851 10.9087C45.4748 10.9087 44.8171 11.5698 44.8171 12.3845V14.8874C38.3811 15.6194 33.3544 21.1212 33.3544 27.7918C33.3544 34.4624 38.3693 39.9642 44.8171 40.6962V60.7552C40.0018 60.035 36.2906 55.8674 36.2906 50.8379C36.2906 50.0232 35.6329 49.3621 34.8225 49.3621C34.0121 49.3621 33.3544 50.0232 33.3544 50.8379C33.3544 57.5085 38.3693 63.0102 44.8171 63.7422V67.6265C44.8171 68.4412 45.4748 69.1023 46.2851 69.1023C47.0955 69.1023 47.7532 68.4412 47.7532 67.6265V63.7422C54.1892 63.0102 59.2041 57.5085 59.2041 50.8379C59.2041 44.1672 54.1892 38.6655 47.7532 37.9335V17.8745C52.5567 18.5946 56.268 22.7623 56.268 27.7918ZM36.2906 27.7918C36.2906 22.7623 40.0018 18.5946 44.8171 17.8745V37.721C39.9901 37.0008 36.2906 32.8213 36.2906 27.7918ZM56.268 50.826C56.268 55.8556 52.5567 60.035 47.7532 60.7434V40.9087C52.5567 41.6289 56.268 45.7965 56.268 50.826Z" fill="#FB8E26"/>
</svg>
