<svg width="56" height="56" viewBox="0 0 56 56" fill="none" xmlns="http://www.w3.org/2000/svg">
<circle cx="27.6708" cy="27.6708" r="27.0208" stroke="#FB8E26" stroke-width="1.3"/>
<path d="M43.9499 23.4228V18.5179C43.9499 15.8443 41.7764 13.6708 39.1028 13.6708H16.235C13.5615 13.6708 11.3879 15.8443 11.3879 18.5179V36.8237C11.3879 39.4972 13.5615 41.6708 16.235 41.6708H39.1028C41.7764 41.6708 43.9499 39.4972 43.9499 36.8237V31.9642C43.9499 31.9518 43.9417 31.9394 43.9417 31.927C44.8879 31.3113 45.516 30.2493 45.516 29.0427V26.3071C45.5119 25.1005 44.8879 24.0385 43.9499 23.4228ZM42.9169 36.8278C42.9169 38.9311 41.2061 40.6419 39.1028 40.6419H16.235C14.1317 40.6419 12.421 38.9311 12.421 36.8278V18.522C12.421 16.4187 14.1317 14.708 16.235 14.708H39.1028C41.2061 14.708 42.9169 16.4187 42.9169 18.522V22.9766C42.6483 22.9063 42.3632 22.8691 42.0739 22.8691H38.1772C36.2805 22.8691 34.7351 24.4146 34.7351 26.3113V29.0468C34.7351 30.9435 36.2805 32.489 38.1772 32.489H42.0739C42.3673 32.489 42.6483 32.4476 42.9169 32.3815V36.8278ZM44.4789 29.0427C44.4789 30.3691 43.4003 31.4518 42.0698 31.4518H38.1731C36.8466 31.4518 35.764 30.3733 35.764 29.0427V26.3071C35.764 24.9807 36.8425 23.8981 38.1731 23.8981H42.0698C43.3962 23.8981 44.4789 24.9766 44.4789 26.3071V29.0427Z" fill="#FB8E26"/>
<path d="M31.1816 23.3981C31.1816 23.6832 31.413 23.9146 31.6981 23.9146C31.9833 23.9146 32.2147 23.6832 32.2147 23.3981C32.2147 21.0634 30.4502 19.1378 28.1857 18.8816V18.0055C28.1857 17.7204 27.9543 17.489 27.6692 17.489C27.3841 17.489 27.1527 17.7204 27.1527 18.0055V18.8816C24.8882 19.1378 23.1196 21.0634 23.1196 23.3981C23.1196 25.7328 24.8841 27.6584 27.1527 27.9146V34.9353C25.4585 34.6832 24.1527 33.2245 24.1527 31.4642C24.1527 31.1791 23.9213 30.9477 23.6362 30.9477C23.351 30.9477 23.1196 31.1791 23.1196 31.4642C23.1196 33.7989 24.8841 35.7245 27.1527 35.9807V37.3402C27.1527 37.6254 27.3841 37.8568 27.6692 37.8568C27.9543 37.8568 28.1857 37.6254 28.1857 37.3402V35.9807C30.4502 35.7245 32.2147 33.7989 32.2147 31.4642C32.2147 29.1295 30.4502 27.2039 28.1857 26.9477V19.9312C29.88 20.1791 31.1816 21.6378 31.1816 23.3981ZM24.1527 23.3981C24.1527 21.6378 25.4585 20.1791 27.1527 19.927V26.8733C25.4585 26.6212 24.1527 25.1626 24.1527 23.3981ZM31.1816 31.4642C31.1816 33.2245 29.8758 34.6874 28.1857 34.9353V27.989C29.88 28.2411 31.1816 29.6998 31.1816 31.4642Z" fill="#FB8E26"/>
</svg>
