<svg width="129" height="30" viewBox="0 0 129 30" fill="none" xmlns="http://www.w3.org/2000/svg">
<path d="M0.311646 29.5348H29.1949V0.464844H0.311646V29.5348ZM23.6356 12.2028H17.5324V6.06011H23.6356V12.2028ZM5.86983 6.06011H11.9764V17.7969H23.6356V23.9396H5.86983V6.06011ZM48.0033 0.464844C45.1469 0.464844 42.3548 1.31731 39.9799 2.91444C37.605 4.51157 35.754 6.78162 34.6609 9.43756C33.5679 12.0935 33.282 15.0159 33.8391 17.8354C34.3964 20.655 35.7718 23.2448 37.7915 25.2776C39.8112 27.3105 42.3844 28.6947 45.1858 29.2556C47.9873 29.8164 50.8909 29.5286 53.5298 28.4285C56.1687 27.3284 58.4241 25.4654 60.011 23.0751C61.5979 20.6848 62.4449 17.8745 62.4449 14.9998C62.4404 11.1463 60.9174 7.45189 58.21 4.72703C55.5027 2.00215 51.8321 0.469343 48.0033 0.464844ZM48.0033 23.9396C46.2465 23.9396 44.5292 23.4153 43.0685 22.4329C41.6079 21.4507 40.4693 20.0545 39.7971 18.4209C39.1248 16.7875 38.9489 14.99 39.2916 13.2558C39.6344 11.5216 40.4804 9.92874 41.7225 8.6785C42.9648 7.42826 44.5474 6.57683 46.2704 6.23189C47.9934 5.88695 49.7793 6.06399 51.4024 6.74061C53.0254 7.41723 54.4127 8.56307 55.3886 10.0332C56.3647 11.5033 56.8856 13.2317 56.8856 14.9998C56.882 17.3698 55.945 19.6415 54.28 21.3173C52.615 22.993 50.3579 23.936 48.0033 23.9396ZM114.124 0.464844C111.267 0.464628 108.475 1.3169 106.1 2.91389C103.725 4.51088 101.874 6.78085 100.781 9.43676C99.6875 12.0926 99.4013 15.0153 99.9585 17.8348C100.516 20.6544 101.891 23.2444 103.911 25.2773C105.93 27.3101 108.503 28.6946 111.305 29.2555C114.106 29.8164 117.01 29.5286 119.649 28.4286C122.288 27.3285 124.543 25.4655 126.13 23.0752C127.718 20.6849 128.564 17.8747 128.564 14.9998C128.56 11.1465 127.037 7.45225 124.33 4.72742C121.623 2.00258 117.952 0.469649 114.124 0.464844ZM114.124 23.9396C112.367 23.9398 110.65 23.4156 109.189 22.4335C107.728 21.4513 106.589 20.0552 105.917 18.4217C105.244 16.7882 105.068 14.9907 105.411 13.2564C105.754 11.5223 106.599 9.92931 107.842 8.6789C109.084 7.42854 110.667 6.577 112.39 6.23197C114.113 5.88694 115.898 6.06391 117.521 6.74051C119.145 7.4171 120.532 8.56292 121.508 10.0331C122.484 11.5033 123.005 13.2317 123.005 14.9998C123.002 17.3695 122.065 19.6411 120.399 21.3168C118.735 22.9926 116.478 23.9357 114.124 23.9396ZM81.063 0.464844C78.2067 0.464844 75.4145 1.31731 73.0397 2.91444C70.6647 4.51157 68.8137 6.78162 67.7206 9.43756C66.6276 12.0935 66.3417 15.0159 66.8989 17.8354C67.4561 20.655 68.8315 23.2448 70.8512 25.2776C72.8709 27.3105 75.4441 28.6947 78.2455 29.2556C81.0469 29.8164 83.9506 29.5286 86.5895 28.4285C89.2284 27.3284 91.4838 25.4654 93.0707 23.0751C94.6576 20.6848 95.5046 17.8745 95.5046 14.9998C95.5001 11.1463 93.9771 7.45189 91.2698 4.72703C88.5624 2.00215 84.8918 0.469343 81.063 0.464844ZM81.063 23.9396C79.4262 23.9404 77.8211 23.486 76.4247 22.6266C75.0284 21.7672 73.895 20.5363 73.1499 19.0695C72.4049 17.6028 72.0769 15.9573 72.2023 14.3149C72.3278 12.6723 72.9016 11.0966 73.8607 9.76169C74.8197 8.42681 76.1266 7.38454 77.637 6.74998C79.1475 6.11542 80.8028 5.91325 82.4201 6.16578C84.0376 6.41832 85.5541 7.11573 86.8026 8.18105C88.051 9.24636 88.9827 10.6382 89.4949 12.2028H81.063V17.7969H89.4949C88.9083 19.5823 87.7782 21.1365 86.2647 22.239C84.7513 23.3416 82.9313 23.9365 81.063 23.9396Z" fill="black"/>
</svg>
