<svg width="38" height="37" viewBox="0 0 38 37" fill="none" xmlns="http://www.w3.org/2000/svg">
<path d="M37.4982 24.1351L21.9668 12.6269L22.3085 3.45774C22.3085 1.54988 20.7587 0 18.8508 0C16.9429 0 15.3931 1.54988 15.3931 3.47808L15.7307 12.635L0.207464 24.1351C0.0772905 24.2327 0 24.3832 0 24.5418V26.8484C0 27.007 0.0732227 27.1535 0.199329 27.2511C0.288823 27.3202 0.398658 27.3569 0.508492 27.3569C0.553239 27.3569 0.593918 27.3528 0.638665 27.3406L16.1253 23.2727L16.3938 30.5217L11.3617 34.252C11.2316 34.3496 11.1543 34.5002 11.1543 34.6588V35.4195C11.1543 35.5782 11.2275 35.7246 11.3536 35.8222C11.4431 35.8914 11.5529 35.928 11.6628 35.928C11.7075 35.928 11.7482 35.9239 11.7929 35.9117L16.5484 34.6629V34.6995C16.5931 35.9443 17.606 36.9165 18.8508 36.9165C20.0956 36.9165 21.1044 35.9443 21.1533 34.6995V34.671L25.8802 35.9117C25.9209 35.9239 25.9656 35.928 26.0104 35.928C26.1202 35.928 26.23 35.8914 26.3195 35.8222C26.4456 35.7246 26.5189 35.5782 26.5189 35.4195V34.6588C26.5189 34.4961 26.4416 34.3456 26.3114 34.252L21.3038 30.5421L21.5723 23.2686L37.067 27.3406C37.1077 27.3528 37.1524 27.3569 37.1972 27.3569C37.307 27.3569 37.4169 27.3202 37.5064 27.2511C37.6325 27.1535 37.7057 27.007 37.7057 26.8484V24.5418C37.7057 24.3832 37.6284 24.2286 37.4982 24.1351ZM1.01698 26.1894V24.7981L15.7754 13.8635L16.0846 22.2272L1.01698 26.1894ZM12.4926 34.6791L16.4385 31.7543L16.5077 33.6255L12.4926 34.6791ZM18.8508 35.8995C18.1552 35.8995 17.5938 35.3544 17.5653 34.6629L16.41 3.45774C16.41 2.11126 17.5043 1.01698 18.8508 1.01698C20.1973 1.01698 21.2916 2.11126 21.2916 3.4374L20.1363 34.6588C20.1078 35.3544 19.5424 35.8995 18.8508 35.8995ZM25.1805 34.6791L21.1899 33.6296L21.259 31.7746L25.1805 34.6791ZM36.6887 26.1894L21.6129 22.2272L21.9221 13.8595L36.6887 24.8022V26.1894Z" fill="white"/>
<path d="M20.657 2.55019C20.0549 1.90339 19.404 1.59423 18.7288 1.63084C17.6914 1.68372 17.0243 2.55426 16.9958 2.59087C16.825 2.81461 16.8738 3.13597 17.0975 3.30276C17.1911 3.37191 17.2968 3.40446 17.4026 3.40446C17.5572 3.40446 17.7077 3.3353 17.8094 3.20106C17.8135 3.19699 18.2325 2.67223 18.7816 2.64375C19.1478 2.62341 19.5261 2.82681 19.9125 3.24174C20.1037 3.4492 20.4251 3.45734 20.6326 3.26615C20.836 3.07902 20.8482 2.75766 20.657 2.55019Z" fill="white"/>
</svg>
