<svg width="56" height="56" viewBox="0 0 56 56" fill="none" xmlns="http://www.w3.org/2000/svg">
<circle cx="28.1708" cy="27.6708" r="27.0208" stroke="#FB8E26" stroke-width="1.3"/>
<path d="M46.6385 22.8076L39.0573 11.9843C38.4063 11.0535 37.4319 10.4331 36.3133 10.2364C35.1947 10.0398 34.0673 10.2889 33.1366 10.9399L10.7515 26.6178C9.82075 27.2689 9.20028 28.2433 9.00365 29.3619C8.80702 30.4805 9.05608 31.6079 9.70714 32.5386L17.2839 43.3619C18.1098 44.5417 19.4294 45.1709 20.7708 45.1709C21.6141 45.1709 22.4618 44.9218 23.2003 44.4062L45.5898 28.7283C47.5124 27.3781 47.9799 24.7258 46.6385 22.8076ZM10.9175 32.355L38.4762 13.0592L40.5736 16.0523L13.0149 35.3525L10.9175 32.355ZM10.0786 29.5498C10.2271 28.7196 10.6859 27.9942 11.3763 27.5136L33.7658 11.8357C34.3033 11.4599 34.9281 11.2633 35.5704 11.2633C35.754 11.2633 35.9419 11.2808 36.1254 11.3113C36.7721 11.425 37.3532 11.7352 37.8077 12.1896L10.332 31.4331C10.0567 30.8476 9.96495 30.1965 10.0786 29.5498ZM44.9693 27.8282L22.5798 43.5061C21.1553 44.5067 19.1803 44.1572 18.184 42.7327L13.6397 36.2483L41.2028 16.948L45.7427 23.4324C46.739 24.8569 46.3938 26.8319 44.9693 27.8282Z" fill="#FB8E26"/>
<path d="M42.6491 23.1398C42.269 22.5979 41.5218 22.4668 40.98 22.847L37.0386 25.6085C36.7765 25.7921 36.6017 26.0673 36.5449 26.382C36.4881 26.6966 36.5624 27.0155 36.7459 27.2777L38.0786 29.1828C38.2621 29.445 38.5374 29.6198 38.852 29.6766C38.9219 29.6897 38.9918 29.6941 39.0617 29.6941C39.3064 29.6941 39.5424 29.6198 39.7477 29.4756L43.6891 26.714C43.9512 26.5305 44.126 26.2552 44.1828 25.9406C44.2396 25.626 44.1697 25.307 43.9862 25.0449L42.6491 23.1398ZM43.0599 25.8183L39.1185 28.5798C39.0879 28.5973 39.0574 28.6017 39.0399 28.5973C39.018 28.5929 38.9918 28.5842 38.97 28.5536L37.6373 26.6485C37.6154 26.6179 37.6154 26.5873 37.6198 26.5698C37.6241 26.5524 37.6329 26.5218 37.6635 26.4999L41.6048 23.7384C41.6223 23.7253 41.6441 23.7209 41.666 23.7209C41.7009 23.7209 41.7315 23.7384 41.7534 23.7646L43.0861 25.6697C43.121 25.7178 43.1079 25.7877 43.0599 25.8183Z" fill="#FB8E26"/>
</svg>
